<svg width="1200" height="700" viewBox="0 0 1200 700" font-family="Arial, sans-serif" xmlns="http://www.w3.org/2000/svg"><defs><marker id="a" markerWidth="10" markerHeight="10" refX="8" refY="5" orient="auto"><path d="M0 0 10 5 0 10Z" fill="#333"/></marker></defs><rect x="22" y="22" width="1156" height="656" rx="26" fill="#e5e7eb"/><rect x="18" y="18" width="1156" height="656" rx="26" fill="#fff" stroke="#d0d7de"/><text x="596" y="58" text-anchor="middle" font-size="28" fill="#111" font-weight="700">GitHub Action Flow</text><text x="596" y="84" text-anchor="middle" font-size="14" fill="#555">Workflow steps from PR event to comment</text><rect x="94" y="146" width="1012" height="422" rx="20" fill="#f6f8fa" stroke="#d0d7de"/><rect x="126" y="188" width="160" height="70" rx="14" fill="#dbeafe" stroke="#d0d7de"/><text x="206" y="216" text-anchor="middle" font-size="17" fill="#111" font-weight="700">PR event</text><text x="206" y="238" text-anchor="middle" font-size="13" fill="#555">opened or updated</text><rect x="342" y="188" width="160" height="70" rx="14" fill="#dcfce7" stroke="#d0d7de"/><text x="422" y="216" text-anchor="middle" font-size="17" fill="#111" font-weight="700">Checkout</text><text x="422" y="238" text-anchor="middle" font-size="13" fill="#555">repository code</text><rect x="558" y="188" width="160" height="70" rx="14" fill="#fef9c3" stroke="#d0d7de"/><text x="638" y="216" text-anchor="middle" font-size="17" fill="#111" font-weight="700">Setup Node</text><text x="638" y="238" text-anchor="middle" font-size="13" fill="#555">runtime ready</text><rect x="774" y="188" width="160" height="70" rx="14" fill="#ffedd5" stroke="#d0d7de"/><text x="854" y="216" text-anchor="middle" font-size="17" fill="#111" font-weight="700">Install deps</text><text x="854" y="238" text-anchor="middle" font-size="13" fill="#555">npm install</text><rect x="126" y="340" width="160" height="70" rx="14" fill="#fce7f3" stroke="#d0d7de"/><text x="206" y="368" text-anchor="middle" font-size="17" fill="#111" font-weight="700">Fetch diff</text><text x="206" y="390" text-anchor="middle" font-size="13" fill="#555">GitHub API</text><rect x="342" y="340" width="160" height="70" rx="14" fill="#e9d5ff" stroke="#d0d7de"/><text x="422" y="368" text-anchor="middle" font-size="17" fill="#111" font-weight="700">Export diff</text><text x="422" y="390" text-anchor="middle" font-size="13" fill="#555">PR_DIFF env</text><rect x="558" y="340" width="160" height="70" rx="14" fill="#dbeafe" stroke="#d0d7de"/><text x="638" y="368" text-anchor="middle" font-size="17" fill="#111" font-weight="700">Run index.js</text><text x="638" y="390" text-anchor="middle" font-size="13" fill="#555">review pipeline</text><rect x="774" y="340" width="160" height="70" rx="14" fill="#dcfce7" stroke="#d0d7de"/><text x="854" y="368" text-anchor="middle" font-size="17" fill="#111" font-weight="700">Post comment</text><text x="854" y="390" text-anchor="middle" font-size="13" fill="#555">Octokit API</text><rect x="990" y="340" width="84" height="70" rx="14" fill="#fef9c3" stroke="#d0d7de"/><text x="1032" y="368" text-anchor="middle" font-size="17" fill="#111" font-weight="700">Done</text><text x="1032" y="390" text-anchor="middle" font-size="13" fill="#555">review ready</text><path d="M286 223H342" fill="none" stroke="#333" stroke-width="2" marker-end="url(#a)"/><path d="M502 223H558" fill="none" stroke="#333" stroke-width="2" marker-end="url(#a)"/><path d="M718 223H774" fill="none" stroke="#333" stroke-width="2" marker-end="url(#a)"/><path d="M854 258V304H206V340" fill="none" stroke="#333" stroke-width="2" marker-end="url(#a)"/><path d="M286 375H342" fill="none" stroke="#333" stroke-width="2" marker-end="url(#a)"/><path d="M502 375H558" fill="none" stroke="#333" stroke-width="2" marker-end="url(#a)"/><path d="M718 375H774" fill="none" stroke="#333" stroke-width="2" marker-end="url(#a)"/><path d="M934 375H990" fill="none" stroke="#333" stroke-width="2" marker-end="url(#a)"/></svg>