<svg xmlns="http://www.w3.org/2000/svg" width="1200" height="760" viewBox="0 0 1200 760" font-family="Arial, sans-serif">
  <defs>
    <marker id="a" markerWidth="10" markerHeight="10" refX="8" refY="5" orient="auto">
      <path d="M0 0L10 5L0 10Z" fill="#333"/>
    </marker>
  </defs>
  <rect x="24" y="28" width="1152" height="704" rx="24" fill="#000" opacity=".05"/>
  <rect x="20" y="24" width="1152" height="704" rx="24" fill="#fff" stroke="#d0d7de"/>
  <text x="596" y="66" text-anchor="middle" font-size="28" fill="#111">Legacy Patterns vs Modernized Output</text>
  <text x="596" y="92" text-anchor="middle" font-size="14" fill="#555">Cleaner code is not about novelty - it is about readability, safety, and control</text>

  <rect x="70" y="150" width="430" height="480" rx="20" fill="#f6f8fa" stroke="#d0d7de"/>
  <text x="285" y="186" text-anchor="middle" font-size="20" fill="#111">Legacy patterns</text>
  <rect x="96" y="218" width="378" height="74" rx="14" fill="#fce7f3" stroke="#d0d7de"/>
  <text x="126" y="249" font-size="16" fill="#111">Modules</text>
  <text x="126" y="272" font-size="14" fill="#555">require() and module.exports</text>
  <rect x="96" y="312" width="378" height="74" rx="14" fill="#ffedd5" stroke="#d0d7de"/>
  <text x="126" y="343" font-size="16" fill="#111">Async flow</text>
  <text x="126" y="366" font-size="14" fill="#555">Nested callbacks and branching noise</text>
  <rect x="96" y="406" width="378" height="74" rx="14" fill="#fef9c3" stroke="#d0d7de"/>
  <text x="126" y="437" font-size="16" fill="#111">APIs</text>
  <text x="126" y="460" font-size="14" fill="#555">Manual wrappers and brittle utility code</text>
  <rect x="96" y="500" width="378" height="74" rx="14" fill="#e9d5ff" stroke="#d0d7de"/>
  <text x="126" y="531" font-size="16" fill="#111">Safety</text>
  <text x="126" y="554" font-size="14" fill="#555">Behavior lives in memory, not in tests</text>

  <rect x="700" y="150" width="430" height="480" rx="20" fill="#f6f8fa" stroke="#d0d7de"/>
  <text x="915" y="186" text-anchor="middle" font-size="20" fill="#111">Modernized output</text>
  <rect x="726" y="218" width="378" height="74" rx="14" fill="#dbeafe" stroke="#d0d7de"/>
  <text x="756" y="249" font-size="16" fill="#111">Modules</text>
  <text x="756" y="272" font-size="14" fill="#555">Clear import and export boundaries</text>
  <rect x="726" y="312" width="378" height="74" rx="14" fill="#dcfce7" stroke="#d0d7de"/>
  <text x="756" y="343" font-size="16" fill="#111">Async flow</text>
  <text x="756" y="366" font-size="14" fill="#555">Readable async and await control flow</text>
  <rect x="726" y="406" width="378" height="74" rx="14" fill="#fef9c3" stroke="#d0d7de"/>
  <text x="756" y="437" font-size="16" fill="#111">APIs</text>
  <text x="756" y="460" font-size="14" fill="#555">Smaller code with modern Node.js primitives</text>
  <rect x="726" y="500" width="378" height="74" rx="14" fill="#fce7f3" stroke="#d0d7de"/>
  <text x="756" y="531" font-size="16" fill="#111">Safety</text>
  <text x="756" y="554" font-size="14" fill="#555">Tests, review, and deliberate small diffs</text>

  <line x1="500" y1="255" x2="700" y2="255" stroke="#333" stroke-width="2" marker-end="url(#a)"/>
  <line x1="500" y1="349" x2="700" y2="349" stroke="#333" stroke-width="2" marker-end="url(#a)"/>
  <line x1="500" y1="443" x2="700" y2="443" stroke="#333" stroke-width="2" marker-end="url(#a)"/>
  <line x1="500" y1="537" x2="700" y2="537" stroke="#333" stroke-width="2" marker-end="url(#a)"/>

  <rect x="356" y="652" width="488" height="44" rx="12" fill="#f8fafc" stroke="#d0d7de"/>
  <text x="600" y="680" text-anchor="middle" font-size="14" fill="#555">AI speeds up the cleanup, but the engineer still decides the standards</text>
</svg>