<svg width="1200" height="620" viewBox="0 0 1200 620" font-family="Arial, sans-serif" xmlns="http://www.w3.org/2000/svg"><defs><marker id="a" markerWidth="10" markerHeight="10" refX="8" refY="5" orient="auto"><path d="M0 0 10 5 0 10Z" fill="#333"/></marker></defs><rect x="22" y="22" width="1156" height="576" rx="26" fill="#e5e7eb"/><rect x="18" y="18" width="1156" height="576" rx="26" fill="#fff" stroke="#d0d7de"/><text x="596" y="58" text-anchor="middle" font-size="28" fill="#111" font-weight="700">Review Pipeline</text><text x="596" y="84" text-anchor="middle" font-size="14" fill="#555">The secure flow inside the reviewer</text><rect x="70" y="176" width="150" height="90" rx="16" fill="#dbeafe" stroke="#d0d7de"/><text x="145" y="214" text-anchor="middle" font-size="18" fill="#111" font-weight="700">Diff</text><text x="145" y="238" text-anchor="middle" font-size="14" fill="#555">PR input</text><rect x="290" y="150" width="180" height="142" rx="18" fill="#f6f8fa" stroke="#d0d7de"/><text x="380" y="180" text-anchor="middle" font-size="18" fill="#111" font-weight="700">Sanitise</text><rect x="314" y="200" width="132" height="36" rx="10" fill="#fce7f3" stroke="#d0d7de"/><text x="380" y="223" text-anchor="middle" font-size="14" fill="#111">Redact secrets</text><rect x="314" y="246" width="132" height="36" rx="10" fill="#ffedd5" stroke="#d0d7de"/><text x="380" y="269" text-anchor="middle" font-size="14" fill="#111">Trim diff</text><rect x="540" y="176" width="160" height="90" rx="16" fill="#e9d5ff" stroke="#d0d7de"/><text x="620" y="214" text-anchor="middle" font-size="18" fill="#111" font-weight="700">Claude</text><text x="620" y="238" text-anchor="middle" font-size="14" fill="#555">JSON review</text><rect x="770" y="126" width="200" height="190" rx="18" fill="#f6f8fa" stroke="#d0d7de"/><text x="870" y="156" text-anchor="middle" font-size="18" fill="#111" font-weight="700">Validation</text><rect x="794" y="176" width="152" height="36" rx="10" fill="#dcfce7" stroke="#d0d7de"/><text x="870" y="199" text-anchor="middle" font-size="14" fill="#111">Parse JSON</text><rect x="794" y="222" width="152" height="36" rx="10" fill="#dbeafe" stroke="#d0d7de"/><text x="870" y="245" text-anchor="middle" font-size="14" fill="#111">Zod check</text><rect x="794" y="268" width="152" height="36" rx="10" fill="#fef9c3" stroke="#d0d7de"/><text x="870" y="291" text-anchor="middle" font-size="14" fill="#111">Fail closed</text><rect x="1020" y="176" width="120" height="90" rx="16" fill="#dcfce7" stroke="#d0d7de"/><text x="1080" y="214" text-anchor="middle" font-size="18" fill="#111" font-weight="700">Result</text><text x="1080" y="238" text-anchor="middle" font-size="14" fill="#555">Safe output</text><path d="M220 221H290" fill="none" stroke="#333" stroke-width="2" marker-end="url(#a)"/><path d="M470 221H540" fill="none" stroke="#333" stroke-width="2" marker-end="url(#a)"/><path d="M700 221H770" fill="none" stroke="#333" stroke-width="2" marker-end="url(#a)"/><path d="M970 221H1020" fill="none" stroke="#333" stroke-width="2" marker-end="url(#a)"/><rect x="804" y="374" width="300" height="110" rx="16" fill="#f6f8fa" stroke="#d0d7de"/><text x="954" y="404" text-anchor="middle" font-size="18" fill="#111" font-weight="700">Legend</text><path d="M836 432H896" fill="none" stroke="#333" stroke-width="2" marker-end="url(#a)"/><text x="914" y="437" font-size="14" fill="#111">Normal flow</text><path d="M836 462H896" fill="none" stroke="#333" stroke-width="2" stroke-dasharray="6 5" marker-end="url(#a)"/><text x="914" y="467" font-size="14" fill="#111">Fallback path</text><path d="M870 304V338" fill="none" stroke="#333" stroke-width="2" stroke-dasharray="6 5" marker-end="url(#a)"/></svg>