<svg width="1000" height="620" viewBox="0 0 1000 620" fill="none" xmlns="http://www.w3.org/2000/svg">
<path d="M956 14H32C22.0589 14 14 22.0589 14 32V576C14 585.941 22.0589 594 32 594H956C965.941 594 974 585.941 974 576V32C974 22.0589 965.941 14 956 14Z" fill="white" stroke="#D0D7DE"/>
<text fill="#111111" style="white-space: pre" xml:space="preserve" font-family="Arial" font-size="28" font-weight="bold" letter-spacing="0em"><tspan x="229.025" y="55.707">CPU Work Offloaded to Worker Threads</tspan></text>
<text fill="#555555" style="white-space: pre" xml:space="preserve" font-family="Arial" font-size="15" letter-spacing="0em"><tspan x="327.066" y="84.7002">Keep the main event loop focused on coordination</tspan></text>
<path d="M264 175H86C77.1634 175 70 182.163 70 191V409C70 417.837 77.1634 425 86 425H264C272.837 425 280 417.837 280 409V191C280 182.163 272.837 175 264 175Z" fill="#F6F8FA" stroke="#D0D7DE"/>
<text fill="#111111" style="white-space: pre" xml:space="preserve" font-family="Arial" font-size="18" font-weight="bold" letter-spacing="0em"><tspan x="121.949" y="208.74">Main Thread</tspan></text>
<path d="M235 250H115C109.477 250 105 254.477 105 260V286C105 291.523 109.477 296 115 296H235C240.523 296 245 291.523 245 286V260C245 254.477 240.523 250 235 250Z" fill="#DBEAFE" stroke="#D0D7DE"/>
<text fill="#111111" style="white-space: pre" xml:space="preserve" font-family="Arial" font-size="14" letter-spacing="0em"><tspan x="133.465" y="277.854">HTTP routing</tspan></text>
<path d="M235 320H115C109.477 320 105 324.477 105 330V356C105 361.523 109.477 366 115 366H235C240.523 366 245 361.523 245 356V330C245 324.477 240.523 320 235 320Z" fill="#DBEAFE" stroke="#D0D7DE"/>
<text fill="#111111" style="white-space: pre" xml:space="preserve" font-family="Arial" font-size="14" letter-spacing="0em"><tspan x="130.614" y="347.854">Fast response</tspan></text>
<path d="M599 145H411C402.163 145 395 152.163 395 161V439C395 447.837 402.163 455 411 455H599C607.837 455 615 447.837 615 439V161C615 152.163 607.837 145 599 145Z" fill="#F6F8FA" stroke="#D0D7DE"/>
<text fill="#111111" style="white-space: pre" xml:space="preserve" font-family="Arial" font-size="18" font-weight="bold" letter-spacing="0em"><tspan x="452.107" y="178.74">Worker Pool</tspan></text>
<path d="M570 225H440C434.477 225 430 229.477 430 235V259C430 264.523 434.477 269 440 269H570C575.523 269 580 264.523 580 259V235C580 229.477 575.523 225 570 225Z" fill="#DCFCE7" stroke="#D0D7DE"/>
<text fill="#111111" style="white-space: pre" xml:space="preserve" font-family="Arial" font-size="14" letter-spacing="0em"><tspan x="476.713" y="251.854">Worker 1</tspan></text>
<path d="M570 290H440C434.477 290 430 294.477 430 300V324C430 329.523 434.477 334 440 334H570C575.523 334 580 329.523 580 324V300C580 294.477 575.523 290 570 290Z" fill="#DCFCE7" stroke="#D0D7DE"/>
<text fill="#111111" style="white-space: pre" xml:space="preserve" font-family="Arial" font-size="14" letter-spacing="0em"><tspan x="476.713" y="316.854">Worker 2</tspan></text>
<path d="M570 355H440C434.477 355 430 359.477 430 365V389C430 394.523 434.477 399 440 399H570C575.523 399 580 394.523 580 389V365C580 359.477 575.523 355 570 355Z" fill="#DCFCE7" stroke="#D0D7DE"/>
<text fill="#111111" style="white-space: pre" xml:space="preserve" font-family="Arial" font-size="14" letter-spacing="0em"><tspan x="475.551" y="381.854">Worker N</tspan></text>
<path d="M909 175H751C742.163 175 735 182.163 735 191V409C735 417.837 742.163 425 751 425H909C917.837 425 925 417.837 925 409V191C925 182.163 917.837 175 909 175Z" fill="#F6F8FA" stroke="#D0D7DE"/>
<text fill="#111111" style="white-space: pre" xml:space="preserve" font-family="Arial" font-size="18" font-weight="bold" letter-spacing="0em"><tspan x="783.611" y="208.74">CPU Tasks</tspan></text>
<path d="M882 258H778C772.477 258 768 262.477 768 268V292C768 297.523 772.477 302 778 302H882C887.523 302 892 297.523 892 292V268C892 262.477 887.523 258 882 258Z" fill="#FEF9C3" stroke="#D0D7DE"/>
<text fill="#111111" style="white-space: pre" xml:space="preserve" font-family="Arial" font-size="14" letter-spacing="0em"><tspan x="804.297" y="284.854">Hashing</tspan></text>
<path d="M882 326H778C772.477 326 768 330.477 768 336V360C768 365.523 772.477 370 778 370H882C887.523 370 892 365.523 892 360V336C892 330.477 887.523 326 882 326Z" fill="#FEF9C3" stroke="#D0D7DE"/>
<text fill="#111111" style="white-space: pre" xml:space="preserve" font-family="Arial" font-size="14" letter-spacing="0em"><tspan x="806.252" y="352.854">Parsing</tspan></text>
<path d="M395 300L385 294.226V305.774L395 300ZM280 300V301H386V300V299H280V300Z" fill="#333333"/>
<path d="M615 299H614V301H615V300V299ZM735 300L725 294.226V305.774L735 300ZM615 300V301H726V300V299H615V300Z" fill="#333333"/>
<path d="M615 365L625 370.774L625 359.226L615 365ZM624 365L624 366L630 366L630 365L630 364L624 364L624 365ZM636 365L636 366L642 366L642 365L642 364L636 364L636 365ZM648 365L648 366L654 366L654 365L654 364L648 364L648 365ZM660 365L660 366L666 366L666 365L666 364L660 364L660 365ZM672 365L672 366L678 366L678 365L678 364L672 364L672 365ZM684 365L684 366L690 366L690 365L690 364L684 364L684 365ZM696 365L696 366L702 366L702 365L702 364L696 364L696 365ZM708 365L708 366L714 366L714 365L714 364L708 364L708 365ZM720 365L720 366L726 366L726 365L726 364L720 364L720 365ZM732 365L732 366L735 366L735 365L735 364L732 364L732 365Z" fill="#333333"/>
<path d="M395 366L396 366L396 364L395 364L395 365L395 366ZM280 365L290 370.774L290 359.226L280 365ZM288.625 365L288.625 366L294.375 366L294.375 365L294.375 364L288.625 364L288.625 365ZM300.125 365L300.125 366L305.875 366L305.875 365L305.875 364L300.125 364L300.125 365ZM311.625 365L311.625 366L317.375 366L317.375 365L317.375 364L311.625 364L311.625 365ZM323.125 365L323.125 366L328.875 366L328.875 365L328.875 364L323.125 364L323.125 365ZM334.625 365L334.625 366L340.375 366L340.375 365L340.375 364L334.625 364L334.625 365ZM346.125 365L346.125 366L351.875 366L351.875 365L351.875 364L346.125 364L346.125 365ZM357.625 365L357.625 366L363.375 366L363.375 365L363.375 364L357.625 364L357.625 365ZM369.125 365L369.125 366L374.875 366L374.875 365L374.875 364L369.125 364L369.125 365ZM380.625 365L380.625 366L386.375 366L386.375 365L386.375 364L380.625 364L380.625 365ZM392.125 365L392.125 366L395 366L395 365L395 364L392.125 364L392.125 365Z" fill="#333333"/>
<text fill="#555555" style="white-space: pre" xml:space="preserve" font-family="Arial" font-size="13" letter-spacing="0em"><tspan x="323.316" y="281.007">job</tspan></text>
<text fill="#555555" style="white-space: pre" xml:space="preserve" font-family="Arial" font-size="13" letter-spacing="0em"><tspan x="645.054" y="281.007">compute</tspan></text>
<text fill="#555555" style="white-space: pre" xml:space="preserve" font-family="Arial" font-size="13" letter-spacing="0em"><tspan x="654.093" y="389.007">result</tspan></text>
<path d="M732 508H268C261.373 508 256 513.373 256 520V538C256 544.627 261.373 550 268 550H732C738.627 550 744 544.627 744 538V520C744 513.373 738.627 508 732 508Z" fill="#FCE7F3" stroke="#D0D7DE"/>
<text fill="#111111" style="white-space: pre" xml:space="preserve" font-family="Arial" font-size="14" letter-spacing="0em"><tspan x="306.837" y="533.854">The cost remains, but it no longer blocks request coordination.</tspan></text>
</svg>
